<svg xmlns="http://www.w3.org/2000/svg" xmlns:xlink="http://www.w3.org/1999/xlink" width="500" zoomAndPan="magnify" viewBox="0 0 375 374.999991" height="500" preserveAspectRatio="xMidYMid meet" version="1.0"><defs><clipPath id="id1"><path d="M 154 56.390625 L 221 56.390625 L 221 151 L 154 151 Z M 154 56.390625 " clip-rule="nonzero"/></clipPath><clipPath id="id2"><path d="M 45.550781 60 L 221 60 L 221 232 L 45.550781 232 Z M 45.550781 60 " clip-rule="nonzero"/></clipPath><clipPath id="id3"><path d="M 220.472656 60.070312 C 220.554688 71.707031 219.191406 110.132812 200.304688 147.660156 C 194.347656 159.460938 186.664062 171.183594 176.730469 181.953125 C 150.996094 209.859375 110.175781 231.339844 45.550781 231.339844 L 45.550781 165.78125 C 93.214844 165.78125 127.917969 158.480469 153.1875 147.660156 C 162.183594 143.796875 169.996094 139.5 176.753906 134.917969 C 216.507812 107.964844 220.3125 71.445312 220.472656 60.070312 Z M 220.472656 60.070312 " clip-rule="nonzero"/></clipPath><linearGradient x1="-0.00000178455" gradientTransform="matrix(0.727354, 0, 0, 0.727236, 45.552024, 56.520999)" y1="122.636002" x2="240.600008" gradientUnits="userSpaceOnUse" y2="122.636002" id="id4"><stop stop-opacity="1" stop-color="rgb(13.299561%, 17.298889%, 22.698975%)" offset="0"/><stop stop-opacity="1" stop-color="rgb(13.244629%, 17.242432%, 22.644043%)" offset="0.0625"/><stop stop-opacity="1" stop-color="rgb(13.047791%, 17.041016%, 22.447205%)" offset="0.125"/><stop stop-opacity="1" stop-color="rgb(12.765503%, 16.752625%, 22.166443%)" offset="0.1875"/><stop stop-opacity="1" stop-color="rgb(12.484741%, 16.464233%, 21.884155%)" offset="0.25"/><stop stop-opacity="1" stop-color="rgb(12.202454%, 16.175842%, 21.601868%)" offset="0.3125"/><stop stop-opacity="1" stop-color="rgb(11.920166%, 15.887451%, 21.321106%)" offset="0.375"/><stop stop-opacity="1" stop-color="rgb(11.637878%, 15.59906%, 21.038818%)" offset="0.4375"/><stop stop-opacity="1" stop-color="rgb(11.357117%, 15.310669%, 20.756531%)" offset="0.5"/><stop stop-opacity="1" stop-color="rgb(11.074829%, 15.022278%, 20.474243%)" offset="0.5625"/><stop stop-opacity="1" stop-color="rgb(10.792542%, 14.733887%, 20.193481%)" offset="0.625"/><stop stop-opacity="1" stop-color="rgb(10.51178%, 14.445496%, 19.911194%)" offset="0.6875"/><stop stop-opacity="1" stop-color="rgb(10.229492%, 14.157104%, 19.628906%)" offset="0.75"/><stop stop-opacity="1" stop-color="rgb(9.947205%, 13.868713%, 19.348145%)" offset="0.8125"/><stop stop-opacity="1" stop-color="rgb(9.666443%, 13.580322%, 19.065857%)" offset="0.875"/><stop stop-opacity="1" stop-color="rgb(9.384155%, 13.291931%, 18.783569%)" offset="0.9375"/><stop stop-opacity="1" stop-color="rgb(9.121704%, 13.023376%, 18.521118%)" offset="1"/></linearGradient><clipPath id="id5"><path d="M 154 224 L 221 224 L 221 318.890625 L 154 318.890625 Z M 154 224 " clip-rule="nonzero"/></clipPath><clipPath id="id6"><path d="M 154 143 L 329.800781 143 L 329.800781 316 L 154 316 Z M 154 143 " clip-rule="nonzero"/></clipPath><clipPath id="id7"><path d="M 154.851562 315.199219 C 154.773438 303.5625 156.132812 265.136719 175.019531 227.609375 C 180.976562 215.808594 188.660156 204.085938 198.59375 193.3125 C 224.328125 165.410156 265.148438 143.925781 329.78125 143.925781 L 329.78125 209.488281 C 282.117188 209.488281 247.414062 216.789062 222.144531 227.609375 C 213.148438 231.472656 205.335938 235.769531 198.578125 240.351562 C 158.824219 267.304688 155.019531 303.832031 154.851562 315.199219 Z M 154.851562 315.199219 " clip-rule="nonzero"/></clipPath><linearGradient x1="167.432005" gradientTransform="matrix(-0.727354, 0.000000000000000089, -0.000000000000000089, -0.727236, 451.562584, 202.096235)" y1="-37.771" x2="408.042021" gradientUnits="userSpaceOnUse" y2="-37.771" id="id8"><stop stop-opacity="1" stop-color="rgb(13.299561%, 17.298889%, 22.698975%)" offset="0"/><stop stop-opacity="1" stop-color="rgb(13.244629%, 17.242432%, 22.644043%)" offset="0.0625"/><stop stop-opacity="1" stop-color="rgb(13.047791%, 17.041016%, 22.447205%)" offset="0.125"/><stop stop-opacity="1" stop-color="rgb(12.765503%, 16.752625%, 22.166443%)" offset="0.1875"/><stop stop-opacity="1" stop-color="rgb(12.484741%, 16.464233%, 21.884155%)" offset="0.25"/><stop stop-opacity="1" stop-color="rgb(12.202454%, 16.175842%, 21.601868%)" offset="0.3125"/><stop stop-opacity="1" stop-color="rgb(11.920166%, 15.887451%, 21.321106%)" offset="0.375"/><stop stop-opacity="1" stop-color="rgb(11.637878%, 15.59906%, 21.038818%)" offset="0.4375"/><stop stop-opacity="1" stop-color="rgb(11.357117%, 15.310669%, 20.756531%)" offset="0.5"/><stop stop-opacity="1" stop-color="rgb(11.074829%, 15.022278%, 20.474243%)" offset="0.5625"/><stop stop-opacity="1" stop-color="rgb(10.792542%, 14.733887%, 20.193481%)" offset="0.625"/><stop stop-opacity="1" stop-color="rgb(10.51178%, 14.445496%, 19.911194%)" offset="0.6875"/><stop stop-opacity="1" stop-color="rgb(10.229492%, 14.157104%, 19.628906%)" offset="0.75"/><stop stop-opacity="1" stop-color="rgb(9.947205%, 13.868713%, 19.348145%)" offset="0.8125"/><stop stop-opacity="1" stop-color="rgb(9.664917%, 13.580322%, 19.065857%)" offset="0.875"/><stop stop-opacity="1" stop-color="rgb(9.384155%, 13.291931%, 18.783569%)" offset="0.9375"/><stop stop-opacity="1" stop-color="rgb(9.121704%, 13.023376%, 18.521118%)" offset="1"/></linearGradient></defs><rect x="-37.5" width="450" fill="#ffffff" y="-37.499999" height="449.999989" fill-opacity="1"/><rect x="-37.5" width="450" fill="#ffffff" y="-37.499999" height="449.999989" fill-opacity="1"/><rect x="-37.5" width="450" fill="#ffffff" y="-37.499999" height="449.999989" fill-opacity="1"/><rect x="-37.5" width="450" fill="#ffffff" y="-37.499999" height="449.999989" fill-opacity="1"/><g clip-path="url(#id1)"><path fill="#c0c4c9" d="M 154.835938 150.597656 L 154.835938 56.519531 L 220.488281 56.519531 C 220.488281 56.519531 221.367188 100.554688 204.582031 118.292969 C 187.792969 136.03125 154.835938 150.597656 154.835938 150.597656 Z M 154.835938 150.597656 " fill-opacity="1" fill-rule="nonzero"/></g><g clip-path="url(#id2)"><g clip-path="url(#id3)"><path fill="url(#id4)" d="M 45.550781 60.070312 L 45.550781 231.339844 L 220.554688 231.339844 L 220.554688 60.070312 Z M 45.550781 60.070312 " fill-rule="nonzero"/></g></g><g clip-path="url(#id5)"><path fill="#c0c4c9" d="M 220.496094 224.671875 L 220.496094 318.746094 L 154.84375 318.746094 C 154.84375 318.746094 153.964844 274.714844 170.75 256.976562 C 187.539062 239.246094 220.496094 224.671875 220.496094 224.671875 Z M 220.496094 224.671875 " fill-opacity="1" fill-rule="nonzero"/></g><g clip-path="url(#id6)"><g clip-path="url(#id7)"><path fill="url(#id8)" d="M 329.78125 315.199219 L 329.78125 143.925781 L 154.773438 143.925781 L 154.773438 315.199219 Z M 329.78125 315.199219 " fill-rule="nonzero"/></g></g></svg>